<mxfile host="app.diagrams.net" modified="2023-07-17T02:35:43.099Z" agent="Mozilla/5.0 (Macintosh; Intel Mac OS X 10_15_7) AppleWebKit/537.36 (KHTML, like Gecko) Chrome/114.0.0.0 Safari/537.36" etag="BRA3zaky47j-X0O9Imve" version="21.6.2" type="github">
  <diagram name="第 1 页" id="DoFzwb4sP5uAtUyVbDYk">
    <mxGraphModel dx="1509" dy="1983" grid="1" gridSize="10" guides="1" tooltips="1" connect="1" arrows="1" fold="1" page="1" pageScale="1" pageWidth="827" pageHeight="1169" math="0" shadow="0">
      <root>
        <mxCell id="0" />
        <mxCell id="1" parent="0" />
        <mxCell id="_N7Nao6OvIsxE7hj1h-V-29" value="" style="group" vertex="1" connectable="0" parent="1">
          <mxGeometry x="70" y="-240" width="660" height="510" as="geometry" />
        </mxCell>
        <mxCell id="_N7Nao6OvIsxE7hj1h-V-3" value="" style="rounded=0;whiteSpace=wrap;html=1;container=0;" vertex="1" parent="_N7Nao6OvIsxE7hj1h-V-29">
          <mxGeometry width="660" height="510" as="geometry" />
        </mxCell>
        <mxCell id="_N7Nao6OvIsxE7hj1h-V-8" value="" style="group" vertex="1" connectable="0" parent="_N7Nao6OvIsxE7hj1h-V-29">
          <mxGeometry x="109" y="2.842170943040401e-14" width="470" height="104.40000000000002" as="geometry" />
        </mxCell>
        <mxCell id="_N7Nao6OvIsxE7hj1h-V-4" value="Dataset" style="text;html=1;strokeColor=none;fillColor=none;align=center;verticalAlign=middle;whiteSpace=wrap;rounded=0;fontFamily=Times New Roman;fontSize=16;container=0;" vertex="1" parent="_N7Nao6OvIsxE7hj1h-V-8">
          <mxGeometry x="205" width="60" height="34.800000000000004" as="geometry" />
        </mxCell>
        <mxCell id="_N7Nao6OvIsxE7hj1h-V-5" value="向量化方式：&lt;br style=&quot;font-size: 16px;&quot;&gt;高质量方式：使用Embedding模型对文本进行向量化并存储&lt;br style=&quot;font-size: 16px;&quot;&gt;经济方式：使用KeywordTable对文本提取关键词存储" style="text;html=1;strokeColor=none;fillColor=none;align=left;verticalAlign=middle;whiteSpace=wrap;rounded=0;fontFamily=Times New Roman;fontSize=16;container=0;" vertex="1" parent="_N7Nao6OvIsxE7hj1h-V-8">
          <mxGeometry width="470" height="104.40000000000002" as="geometry" />
        </mxCell>
        <mxCell id="_N7Nao6OvIsxE7hj1h-V-10" value="文档 1" style="rounded=1;whiteSpace=wrap;html=1;fontFamily=Times New Roman;fontSize=16;" vertex="1" parent="_N7Nao6OvIsxE7hj1h-V-29">
          <mxGeometry x="60" y="145" width="120" height="60" as="geometry" />
        </mxCell>
        <mxCell id="_N7Nao6OvIsxE7hj1h-V-11" value="文档 2" style="rounded=1;whiteSpace=wrap;html=1;fontFamily=Times New Roman;fontSize=16;" vertex="1" parent="_N7Nao6OvIsxE7hj1h-V-29">
          <mxGeometry x="60" y="275" width="120" height="60" as="geometry" />
        </mxCell>
        <mxCell id="_N7Nao6OvIsxE7hj1h-V-12" value="文档 n" style="rounded=1;whiteSpace=wrap;html=1;fontFamily=Times New Roman;fontSize=16;" vertex="1" parent="_N7Nao6OvIsxE7hj1h-V-29">
          <mxGeometry x="60" y="415" width="120" height="60" as="geometry" />
        </mxCell>
        <mxCell id="_N7Nao6OvIsxE7hj1h-V-13" value="..." style="text;html=1;strokeColor=none;fillColor=none;align=center;verticalAlign=middle;whiteSpace=wrap;rounded=0;fontFamily=Times New Roman;fontSize=16;" vertex="1" parent="_N7Nao6OvIsxE7hj1h-V-29">
          <mxGeometry x="90" y="360" width="60" height="30" as="geometry" />
        </mxCell>
        <mxCell id="_N7Nao6OvIsxE7hj1h-V-14" value="split_style 1" style="whiteSpace=wrap;html=1;fontSize=16;fontFamily=Times New Roman;rounded=1;" vertex="1" parent="_N7Nao6OvIsxE7hj1h-V-29">
          <mxGeometry x="260" y="145" width="120" height="60" as="geometry" />
        </mxCell>
        <mxCell id="_N7Nao6OvIsxE7hj1h-V-15" value="" style="edgeStyle=orthogonalEdgeStyle;rounded=0;orthogonalLoop=1;jettySize=auto;html=1;" edge="1" parent="_N7Nao6OvIsxE7hj1h-V-29" source="_N7Nao6OvIsxE7hj1h-V-10" target="_N7Nao6OvIsxE7hj1h-V-14">
          <mxGeometry relative="1" as="geometry" />
        </mxCell>
        <mxCell id="_N7Nao6OvIsxE7hj1h-V-16" value="split_style 2" style="whiteSpace=wrap;html=1;fontSize=16;fontFamily=Times New Roman;rounded=1;" vertex="1" parent="_N7Nao6OvIsxE7hj1h-V-29">
          <mxGeometry x="260" y="275" width="120" height="60" as="geometry" />
        </mxCell>
        <mxCell id="_N7Nao6OvIsxE7hj1h-V-17" value="split_style n" style="whiteSpace=wrap;html=1;fontSize=16;fontFamily=Times New Roman;rounded=1;" vertex="1" parent="_N7Nao6OvIsxE7hj1h-V-29">
          <mxGeometry x="260" y="415" width="120" height="60" as="geometry" />
        </mxCell>
        <mxCell id="_N7Nao6OvIsxE7hj1h-V-18" value="..." style="text;html=1;strokeColor=none;fillColor=none;align=center;verticalAlign=middle;whiteSpace=wrap;rounded=0;fontFamily=Times New Roman;fontSize=16;" vertex="1" parent="_N7Nao6OvIsxE7hj1h-V-29">
          <mxGeometry x="284" y="360" width="60" height="30" as="geometry" />
        </mxCell>
        <mxCell id="_N7Nao6OvIsxE7hj1h-V-19" value="" style="endArrow=classic;html=1;rounded=0;exitX=1;exitY=0.5;exitDx=0;exitDy=0;" edge="1" parent="_N7Nao6OvIsxE7hj1h-V-29" source="_N7Nao6OvIsxE7hj1h-V-11" target="_N7Nao6OvIsxE7hj1h-V-16">
          <mxGeometry width="50" height="50" relative="1" as="geometry">
            <mxPoint x="210" y="315" as="sourcePoint" />
            <mxPoint x="260" y="265" as="targetPoint" />
          </mxGeometry>
        </mxCell>
        <mxCell id="_N7Nao6OvIsxE7hj1h-V-20" value="" style="endArrow=classic;html=1;rounded=0;exitX=1;exitY=0.5;exitDx=0;exitDy=0;entryX=0;entryY=0.5;entryDx=0;entryDy=0;" edge="1" parent="_N7Nao6OvIsxE7hj1h-V-29" source="_N7Nao6OvIsxE7hj1h-V-12" target="_N7Nao6OvIsxE7hj1h-V-17">
          <mxGeometry width="50" height="50" relative="1" as="geometry">
            <mxPoint x="190" y="389.47" as="sourcePoint" />
            <mxPoint x="270" y="389.47" as="targetPoint" />
          </mxGeometry>
        </mxCell>
        <mxCell id="_N7Nao6OvIsxE7hj1h-V-21" value="Documents&lt;br&gt;document1&lt;br&gt;document2&lt;br&gt;..." style="whiteSpace=wrap;html=1;fontSize=16;fontFamily=Times New Roman;rounded=1;" vertex="1" parent="_N7Nao6OvIsxE7hj1h-V-29">
          <mxGeometry x="460" y="120" width="130" height="110" as="geometry" />
        </mxCell>
        <mxCell id="_N7Nao6OvIsxE7hj1h-V-22" value="" style="edgeStyle=orthogonalEdgeStyle;rounded=0;orthogonalLoop=1;jettySize=auto;html=1;" edge="1" parent="_N7Nao6OvIsxE7hj1h-V-29" source="_N7Nao6OvIsxE7hj1h-V-14" target="_N7Nao6OvIsxE7hj1h-V-21">
          <mxGeometry relative="1" as="geometry" />
        </mxCell>
        <mxCell id="_N7Nao6OvIsxE7hj1h-V-23" value="Documents&lt;br&gt;document1&lt;br&gt;document2&lt;br&gt;..." style="whiteSpace=wrap;html=1;fontSize=16;fontFamily=Times New Roman;rounded=1;" vertex="1" parent="_N7Nao6OvIsxE7hj1h-V-29">
          <mxGeometry x="460" y="250" width="130" height="110" as="geometry" />
        </mxCell>
        <mxCell id="_N7Nao6OvIsxE7hj1h-V-25" value="Documents&lt;br&gt;document1&lt;br&gt;document2&lt;br&gt;..." style="whiteSpace=wrap;html=1;fontSize=16;fontFamily=Times New Roman;rounded=1;" vertex="1" parent="_N7Nao6OvIsxE7hj1h-V-29">
          <mxGeometry x="460" y="390" width="130" height="110" as="geometry" />
        </mxCell>
        <mxCell id="_N7Nao6OvIsxE7hj1h-V-27" value="..." style="text;html=1;strokeColor=none;fillColor=none;align=center;verticalAlign=middle;whiteSpace=wrap;rounded=0;fontFamily=Times New Roman;fontSize=16;" vertex="1" parent="_N7Nao6OvIsxE7hj1h-V-29">
          <mxGeometry x="495" y="360" width="60" height="30" as="geometry" />
        </mxCell>
        <mxCell id="_N7Nao6OvIsxE7hj1h-V-24" value="" style="edgeStyle=orthogonalEdgeStyle;rounded=0;orthogonalLoop=1;jettySize=auto;html=1;" edge="1" parent="_N7Nao6OvIsxE7hj1h-V-29" source="_N7Nao6OvIsxE7hj1h-V-16" target="_N7Nao6OvIsxE7hj1h-V-23">
          <mxGeometry relative="1" as="geometry" />
        </mxCell>
        <mxCell id="_N7Nao6OvIsxE7hj1h-V-26" value="" style="edgeStyle=orthogonalEdgeStyle;rounded=0;orthogonalLoop=1;jettySize=auto;html=1;" edge="1" parent="_N7Nao6OvIsxE7hj1h-V-29" source="_N7Nao6OvIsxE7hj1h-V-17" target="_N7Nao6OvIsxE7hj1h-V-25">
          <mxGeometry relative="1" as="geometry" />
        </mxCell>
      </root>
    </mxGraphModel>
  </diagram>
</mxfile>
